The Sunset Limited (2011)

IMDB                             :  http://www.imdb.com/title/tt1510938/

General
ID                               : 1
Complete name                    : H:\The Sunset Limited 2011 HDTV 1080i MPEG2 DD5.1-CtrlHD.ts
Format                           : MPEG-TS
File size                        : 8.60 GiB
Duration                         : 1h 30mn
Overall bit rate                 : 13.5 Mbps

Video
ID                               : 33 (0x21)
Menu ID                          : 1 (0x1)
Format                           : MPEG Video
Format version                   : Version 2
Format profile                   : Main@High
Format settings, BVOP            : Yes
Format settings, Matrix          : Default
Duration                         : 1h 30mn
Bit rate mode                    : Variable
Bit rate                         : 12.2 Mbps
Nominal bit rate                 : 18.0 Mbps
Width                            : 1 920 pixels
Height                           : 1 080 pixels
Display aspect ratio             : 16:9
Frame rate                       : 29.970 fps
Resolution                       : 8 bits
Colorimetry                      : 4:2:0
Bits/(Pixel*Frame)               : 0.197
Stream size                      : 7.76 GiB (90%)

Audio
ID                               : 36 (0x24)
Menu ID                          : 1 (0x1)
Format                           : AC-3
Format/Info                      : Audio Coding 3
Duration                         : 1h 30mn
Bit rate mode                    : Constant
Bit rate                         : 384 Kbps
Channel(s)                       : 6 channels
Channel positions                : Front: L C R, Surround: L R, LFE
Sampling rate                    : 48.0 KHz
Stream size                      : 250 MiB (3%)
Language                         : English


Screens :
  http://www.phyrefile.com/image/view/wT0XSUUdhCahQY59
  http://www.phyrefile.com/image/view/UE55i8u62Bknk989
  http://www.phyrefile.com/image/view/ImoEN43pqmhmoIOA
  http://www.phyrefile.com/image/view/ulm80ByHmRX57Pi1
  http://www.phyrefile.com/image/view/QvNtw49n7v2ZoH0R
  http://www.phyrefile.com/image/view/OPxy6Nox7Q7tNHTZ